<svg xmlns="http://www.w3.org/2000/svg" width="72.658" height="72.651" viewBox="0 0 72.658 72.651">
  <g id="Groupe_4947" data-name="Groupe 4947" transform="translate(-160.67 -3109.674)">
    <path id="Tracé_6227" data-name="Tracé 6227" d="M33.35,72.652a8.349,8.349,0,0,0-2.245-.384A36.321,36.321,0,0,1,26.774,1.281,35.141,35.141,0,0,1,36.152,0a2.722,2.722,0,0,1,2.888,2.516,2.627,2.627,0,0,1-2.6,2.926,44.215,44.215,0,0,0-6.2.641A30.417,30.417,0,0,0,16.03,13.148,29.564,29.564,0,0,0,6.52,28.5C3.93,39.1,6.171,48.631,13.4,56.866a29.257,29.257,0,0,0,18.065,9.9,30,30,0,0,0,25.142-7.261,30.135,30.135,0,0,0,9.568-15.4,28.6,28.6,0,0,0,.971-6.786,11.728,11.728,0,0,1,.077-1.272,2.7,2.7,0,0,1,5.306-.433c.017.055.085.094.129.14V39.3c-.2.052-.131.219-.15.346-.2,1.331-.329,2.674-.594,3.991A36.433,36.433,0,0,1,40.573,72.4a3.363,3.363,0,0,0-1.547.249Z" transform="translate(160.671 3109.673)" fill="#4daf27"/>
    <path id="Tracé_6228" data-name="Tracé 6228" d="M97.157,74.059a2.744,2.744,0,0,1,1.648-2.65,2.668,2.668,0,0,1,3.1.691c1.527,1.615,3.021,3.262,4.527,4.9,2.259,2.452,4.531,4.893,6.763,7.369.425.471.629.507,1.1.037q15.95-15.954,31.931-31.879a2.993,2.993,0,0,1,2.763-1.094,2.709,2.709,0,0,1,1.656,4.385,6.877,6.877,0,0,1-.532.57q-17.076,17.036-34.154,34.07c-1.61,1.606-3.134,1.571-4.68-.107Q104.7,83.2,98.112,76.054a2.88,2.88,0,0,1-.955-1.995" transform="translate(80.789 3067.425)" fill="#4daf27"/>
  </g>
</svg>
