<svg xmlns="http://www.w3.org/2000/svg" xmlns:xlink="http://www.w3.org/1999/xlink" width="180.649" height="191.791" viewBox="0 0 180.649 191.791">
  <defs>
    <clipPath id="clip-path">
      <rect id="Rectangle_3007" data-name="Rectangle 3007" width="119.304" height="147.974" fill="#074756"/>
    </clipPath>
  </defs>
  <g id="Groupe_4570" data-name="Groupe 4570" transform="translate(193.736 156.491) rotate(158)">
    <g id="Groupe_4569" data-name="Groupe 4569" transform="translate(0 34.934) rotate(-11)">
      <g id="Groupe_4568" data-name="Groupe 4568" transform="translate(0 0)" clip-path="url(#clip-path)">
        <path id="Tracé_5749" data-name="Tracé 5749" d="M2,143.291c20.163,2.1,41.322-.536,59.144-10.677a75.02,75.02,0,0,0,20.273-16.75c5.659-6.708,10.371-14.81,12.33-23.423,1.029-4.524,1.183-9.4-.543-13.778a13.074,13.074,0,0,0-7.139-7.287c-2.78-1.2-6.248-1.533-8.867-.334a6.978,6.978,0,0,0-3.644,3.491c-.862,2.032.266,3.361,1.929,4.459,6.456,4.26,14.784,4.132,21.76,1.221a28.781,28.781,0,0,0,15.922-17.6c2.934-8.568,2.719-17.983.342-26.654C110.829,26.187,105.7,17.319,100,9.018c-1.393-2.027-2.826-4.025-4.28-6.009A2.015,2.015,0,0,1,96.437.272,2.046,2.046,0,0,1,99.173.99c6.447,8.8,12.507,18,16.358,28.269,3.568,9.513,4.88,19.919,2.734,29.92C116.275,68.455,111.015,77,102.753,81.9c-7.429,4.4-17.056,5.967-25.2,2.655a19.154,19.154,0,0,1-6.195-3.744,6.764,6.764,0,0,1-1.7-7.244c1.5-4.2,5.581-6.7,9.86-7.175a16.94,16.94,0,0,1,11.373,3.136A17.919,17.919,0,0,1,97.969,80.69c2.09,10.044-2.1,20.559-7.241,29.03a74.845,74.845,0,0,1-19.555,21.132c-17.4,12.895-39.509,17.852-60.9,17.036-2.764-.106-5.522-.31-8.273-.6a2.057,2.057,0,0,1-2-2,2.013,2.013,0,0,1,2-2" transform="translate(0 0)" fill="#074756"/>
      </g>
    </g>
    <path id="Tracé_5700" data-name="Tracé 5700" d="M5.558,8.249l-2.08,9.727L23.045,4.866,0,0Z" transform="matrix(-0.602, -0.799, 0.799, -0.602, 93.743, 29.223)" fill="#074756"/>
  </g>
</svg>
